<mxfile host="app.diagrams.net" modified="2021-03-05T02:51:53.601Z" agent="5.0 (Macintosh; Intel Mac OS X 11_0_1) AppleWebKit/537.36 (KHTML, like Gecko) Chrome/88.0.4324.192 Safari/537.36" etag="ZzcPr_3Zyu8XposqR5QA" version="14.4.3" type="github">
  <diagram id="iHhAssqrtmJp9EMEQn-V" name="Page-1">
    <mxGraphModel dx="923" dy="589" grid="1" gridSize="10" guides="1" tooltips="1" connect="1" arrows="1" fold="1" page="1" pageScale="1" pageWidth="827" pageHeight="1169" math="0" shadow="0">
      <root>
        <mxCell id="0" />
        <mxCell id="1" parent="0" />
        <mxCell id="Nm6_lM65ACZkUUXdZGKr-6" value="" style="edgeStyle=orthogonalEdgeStyle;rounded=0;orthogonalLoop=1;jettySize=auto;html=1;" edge="1" parent="1" source="Nm6_lM65ACZkUUXdZGKr-1" target="Nm6_lM65ACZkUUXdZGKr-2">
          <mxGeometry relative="1" as="geometry" />
        </mxCell>
        <mxCell id="Nm6_lM65ACZkUUXdZGKr-1" value="&lt;font style=&quot;font-size: 14px&quot;&gt;开始&lt;/font&gt;" style="rounded=1;whiteSpace=wrap;html=1;" vertex="1" parent="1">
          <mxGeometry x="330" y="200" width="120" height="40" as="geometry" />
        </mxCell>
        <mxCell id="Nm6_lM65ACZkUUXdZGKr-7" style="edgeStyle=orthogonalEdgeStyle;rounded=0;orthogonalLoop=1;jettySize=auto;html=1;entryX=0.5;entryY=0;entryDx=0;entryDy=0;" edge="1" parent="1" source="Nm6_lM65ACZkUUXdZGKr-2" target="Nm6_lM65ACZkUUXdZGKr-4">
          <mxGeometry relative="1" as="geometry">
            <Array as="points">
              <mxPoint x="280" y="310" />
            </Array>
          </mxGeometry>
        </mxCell>
        <mxCell id="Nm6_lM65ACZkUUXdZGKr-8" style="edgeStyle=orthogonalEdgeStyle;rounded=0;orthogonalLoop=1;jettySize=auto;html=1;" edge="1" parent="1" source="Nm6_lM65ACZkUUXdZGKr-2" target="Nm6_lM65ACZkUUXdZGKr-3">
          <mxGeometry relative="1" as="geometry">
            <Array as="points">
              <mxPoint x="510" y="310" />
            </Array>
          </mxGeometry>
        </mxCell>
        <mxCell id="Nm6_lM65ACZkUUXdZGKr-2" value="查看证书是否过期" style="rhombus;whiteSpace=wrap;html=1;" vertex="1" parent="1">
          <mxGeometry x="315" y="280" width="150" height="60" as="geometry" />
        </mxCell>
        <mxCell id="Nm6_lM65ACZkUUXdZGKr-10" style="edgeStyle=orthogonalEdgeStyle;rounded=0;orthogonalLoop=1;jettySize=auto;html=1;entryX=0.5;entryY=0;entryDx=0;entryDy=0;" edge="1" parent="1" source="Nm6_lM65ACZkUUXdZGKr-3" target="Nm6_lM65ACZkUUXdZGKr-5">
          <mxGeometry relative="1" as="geometry" />
        </mxCell>
        <mxCell id="Nm6_lM65ACZkUUXdZGKr-3" value="记录证书信息&lt;br&gt;（录入宜搭）" style="rounded=0;whiteSpace=wrap;html=1;" vertex="1" parent="1">
          <mxGeometry x="450" y="390" width="120" height="60" as="geometry" />
        </mxCell>
        <mxCell id="Nm6_lM65ACZkUUXdZGKr-9" style="edgeStyle=orthogonalEdgeStyle;rounded=0;orthogonalLoop=1;jettySize=auto;html=1;" edge="1" parent="1" source="Nm6_lM65ACZkUUXdZGKr-4" target="Nm6_lM65ACZkUUXdZGKr-5">
          <mxGeometry relative="1" as="geometry" />
        </mxCell>
        <mxCell id="Nm6_lM65ACZkUUXdZGKr-4" value="购买or续费&lt;br&gt;证书" style="rounded=0;whiteSpace=wrap;html=1;" vertex="1" parent="1">
          <mxGeometry x="220" y="390" width="120" height="60" as="geometry" />
        </mxCell>
        <mxCell id="Nm6_lM65ACZkUUXdZGKr-5" value="技术小二完成&lt;br&gt;证书上传效验&lt;br&gt;（麦座运维）" style="rounded=0;whiteSpace=wrap;html=1;" vertex="1" parent="1">
          <mxGeometry x="330" y="525" width="120" height="60" as="geometry" />
        </mxCell>
        <mxCell id="Nm6_lM65ACZkUUXdZGKr-11" value="过期/即将过期" style="text;html=1;strokeColor=none;fillColor=none;align=center;verticalAlign=middle;whiteSpace=wrap;rounded=0;" vertex="1" parent="1">
          <mxGeometry x="225" y="290" width="90" height="20" as="geometry" />
        </mxCell>
        <mxCell id="Nm6_lM65ACZkUUXdZGKr-12" value="没有过期" style="text;html=1;strokeColor=none;fillColor=none;align=center;verticalAlign=middle;whiteSpace=wrap;rounded=0;" vertex="1" parent="1">
          <mxGeometry x="465" y="290" width="90" height="20" as="geometry" />
        </mxCell>
        <mxCell id="Nm6_lM65ACZkUUXdZGKr-13" value="交给技术处理" style="text;html=1;strokeColor=none;fillColor=none;align=center;verticalAlign=middle;whiteSpace=wrap;rounded=0;" vertex="1" parent="1">
          <mxGeometry x="215" y="490" width="110" height="20" as="geometry" />
        </mxCell>
        <mxCell id="Nm6_lM65ACZkUUXdZGKr-15" value="到期会主动联系" style="text;html=1;strokeColor=none;fillColor=none;align=center;verticalAlign=middle;whiteSpace=wrap;rounded=0;" vertex="1" parent="1">
          <mxGeometry x="465" y="490" width="110" height="20" as="geometry" />
        </mxCell>
      </root>
    </mxGraphModel>
  </diagram>
</mxfile>
